<?xml version="1.0" encoding="UTF-8" standalone="no"?>
<!-- Generator: Adobe Illustrator 16.0.0, SVG Export Plug-In . SVG Version: 6.00 Build 0)  -->

<svg
   version="1.1"
   id="Capa_1"
   x="0px"
   y="0px"
   width="300"
   height="53.853806"
   viewBox="6.779 -10.667 299.99999 53.853807"
   enable-background="new 6.779 -10.667 1068.228 194.441"
   xml:space="preserve"
   sodipodi:docname="logo_lofi.svg"
   inkscape:version="1.3 (0e150ed6c4, 2023-07-21)"
   xmlns:inkscape="http://www.inkscape.org/namespaces/inkscape"
   xmlns:sodipodi="http://sodipodi.sourceforge.net/DTD/sodipodi-0.dtd"
   xmlns="http://www.w3.org/2000/svg"
   xmlns:svg="http://www.w3.org/2000/svg"><defs
   id="defs13" /><sodipodi:namedview
   id="namedview13"
   pagecolor="#ffffff"
   bordercolor="#000000"
   borderopacity="0.25"
   inkscape:showpageshadow="2"
   inkscape:pageopacity="0.0"
   inkscape:pagecheckerboard="0"
   inkscape:deskcolor="#d1d1d1"
   inkscape:zoom="1.1848792"
   inkscape:cx="219.00967"
   inkscape:cy="67.939417"
   inkscape:window-width="1920"
   inkscape:window-height="1017"
   inkscape:window-x="-8"
   inkscape:window-y="-8"
   inkscape:window-maximized="1"
   inkscape:current-layer="Capa_1" />&#10;<g
   id="g13"
   transform="matrix(0.28225412,0,0,0.28225412,4.1097228,-8.1701801)"
   style="stroke-width:3.54291">&#10;	<path
   fill="#ffffff"
   d="m 1072.329,27.893 c 0,-13.252 -10.855,-24.03 -24.203,-24.03 -11.875,0 -21.775,8.419 -23.926,19.519 -6.178,-1.43 -13.381,-2.258 -21.813,-2.258 -24.24,0 -42.287,8.748 -50.615,23.354 -1.344,-1.71 -2.775,-3.341 -4.299,-4.887 -11.893,-12.082 -28.244,-18.468 -47.295,-18.468 -16.334,0 -30.684,5.037 -41.625,13.715 -0.686,-6.813 -5.984,-12.355 -12.92,-13.127 -0.322,-0.036 -0.641,-0.086 -0.961,-0.133 -1.291,-0.191 -3.059,-0.453 -5.131,-0.453 -6.109,0 -13.109,1.036 -19.766,4.382 -2.131,-1.209 -4.596,-1.897 -7.225,-1.897 h -31.297 c -7,0 -12.846,4.902 -14.316,11.459 -11.033,-8.893 -25.969,-13.943 -43.559,-13.943 -17.176,0 -31.641,4.753 -42.451,13.272 V 5.835 c 0,-8.108 -6.572,-14.681 -14.682,-14.681 h -34.441 c -8.107,0 -14.682,6.575 -14.682,14.681 v 16.254 c -3.463,-0.65 -7.168,-0.969 -11.154,-0.969 -17.648,0 -32.428,9.176 -41.553,24.142 -1.512,-1.991 -3.133,-3.895 -4.881,-5.671 -11.893,-12.084 -28.248,-18.468 -47.295,-18.468 -4.087,0 -8.042,0.331 -11.856,0.939 -0.984,-2.659 -2.722,-5.523 -5.685,-8.32 -1.023,-0.964 -2.176,-1.777 -3.426,-2.414 -0.93,-0.474 -23.254,-11.607 -61.438,-12.335 l -1.093,-0.011 c -14.017,0 -26.385,5.275 -35.768,15.257 -1.479,1.572 -2.839,3.224 -4.11,4.928 -11.581,11.066 -19.558,17.394 -42.467,18.341 -8,-9.89 -22.645,-16.385 -49.066,-16.385 -29.726,0 -45.818,8.015 -54.111,18.641 -8.178,-11.982 -21.64,-18.641 -39.297,-18.641 -4.087,0 -7.966,0.439 -11.646,1.328 V 5.835 c 0,-8.108 -6.575,-14.681 -14.682,-14.681 h -34.441 c -8.109,0 -14.682,6.575 -14.682,14.681 V 37.514 H 53.349 c -21.109,0 -43.892,19.86 -43.892,51.95 0,31.469 23.17,50.273 45.569,50.273 l 314.309,0.088 c 15.396,-1.085 23.994,10.675 28.519,13.552 8.735,11.59 20.197,21.249 35.034,26.292 4.457,1.515 9.178,2.284 14.036,2.284 0.003,0 0.003,0 0.006,0 25.322,0 50.122,-20.573 67.784,-39.8 22.179,-0.503 464.451,0.067 487.51,0.067 56.947,0 61.373,-34.432 61.373,-44.984 0,-10.113 -3.162,-17.709 -8.029,-23.481 0.238,-0.226 0.469,-0.459 0.693,-0.702 2.781,-3.03 4.16,-7.091 3.809,-11.188 -0.303,-3.52 -1.043,-7.594 -2.566,-11.773 8.7,-3.667 14.825,-12.237 14.825,-22.199 z"
   id="path1"
   style="stroke-width:3.50942" />&#10;	<path
   fill="#cb1517"
   d="m 143.157,5.835 h 34.441 v 43.382 c 6.954,-8.777 14.736,-13.413 26.328,-13.413 22.85,0 33.612,13.413 33.612,37.257 v 51.992 H 203.097 V 79.188 c 0,-8.611 -2.315,-16.228 -12.087,-16.228 -10.597,0 -13.412,6.787 -13.412,17.882 v 44.21 h -34.441 z"
   id="path2"
   style="stroke-width:3.50942" />&#10;	<path
   fill="#cb1517"
   d="m 309.915,125.053 -1.655,-9.273 c -9.769,9.107 -19.703,11.757 -32.618,11.757 -16.393,0 -30.963,-8.113 -30.963,-26.161 0,-39.409 61.764,-21.524 61.764,-37.752 0,-6.29 -7.617,-7.119 -11.26,-7.119 -4.802,0 -11.258,0.995 -12.086,8.443 h -33.116 c 0,-18.377 13.081,-29.144 47.356,-29.144 41.063,0 43.548,15.236 43.548,35.931 v 40.566 c 0,4.968 0.165,7.453 4.635,11.095 v 1.655 h -35.604 v 0.002 z m -3.478,-38.416 c -11.26,5.464 -26.162,2.814 -26.162,14.075 0,4.307 4.138,7.287 10.926,7.287 12.089,-0.002 16.065,-9.439 15.236,-21.362 z"
   id="path3"
   style="stroke-width:3.50942" />&#10;	<path
   fill="#cb1517"
   d="m 635.278,125.053 v -11.592 c -8.113,10.598 -15.564,14.075 -26.656,14.075 -26.162,0 -39.408,-19.702 -39.408,-44.207 0,-28.812 16.063,-47.522 36.76,-47.522 10.928,0 18.545,2.649 25.832,11.261 V 5.838 h 34.441 v 119.218 h -30.969 z m -2.316,-42.555 c 0,-9.605 -3.311,-20.037 -14.736,-20.037 -11.422,0 -14.57,10.929 -14.57,20.531 0,9.108 2.318,19.703 13.58,19.703 11.917,0 15.726,-10.099 15.726,-20.197 z"
   id="path4"
   style="stroke-width:3.50942" />&#10;	<path
   fill="#cb1517"
   d="m 723.378,35.804 c 30.633,0 49.512,18.049 49.512,45.039 0,31.792 -21.529,46.693 -49.346,46.693 -27.817,0 -49.344,-15.235 -49.344,-44.873 0,-30.134 19.871,-46.859 49.178,-46.859 z M 708.642,80.84 c 0,16.394 6.129,23.513 14.902,23.513 9.273,0 14.904,-7.119 14.904,-23.513 0,-12.749 -5.633,-22.352 -14.57,-21.857 -11.756,0.002 -15.236,12.088 -15.236,21.857 z"
   id="path5"
   style="stroke-width:3.50942" />&#10;	<path
   fill="#cb1517"
   d="m 781.251,38.288 h 31.299 v 17.551 h 0.33 c 4.803,-13.578 13.244,-20.035 26.656,-20.035 1.49,0 2.982,0.332 4.471,0.498 v 34.441 c -2.318,-0.332 -4.801,-0.995 -7.121,-0.995 -14.074,0 -21.195,6.622 -21.195,25.336 v 29.972 H 781.25 V 38.288 Z"
   id="path6"
   style="stroke-width:3.50942" />&#10;	<path
   fill="#cb1517"
   d="m 885.444,89.451 c 0,10.266 7.945,17.057 17.051,17.057 5.463,0 10.432,-2.486 12.914,-7.617 h 32.949 c -5.961,21.526 -27.813,28.646 -48.014,28.646 -27.816,0 -49.344,-15.893 -49.344,-45.036 0,-28.479 21.361,-46.693 49.178,-46.693 32.121,0 51.492,22.189 50.998,53.647 H 885.444 Z M 916.735,71.9 c 0,-7.948 -7.119,-15.067 -15.236,-15.067 -10.262,0 -16.055,5.796 -16.055,15.067 z"
   id="path7"
   style="stroke-width:3.50942" />&#10;	<path
   fill="#cb1517"
   d="m 991.458,98.063 c 0,3.478 1.324,6.125 3.645,7.948 2.148,1.657 5.131,2.649 8.443,2.649 5.301,0 10.928,-1.655 10.928,-7.783 0,-13.909 -53.152,-2.814 -53.152,-36.428 0,-22.188 23.016,-28.646 41.066,-28.646 18.877,0 41.063,4.308 43.053,27.32 h -31.299 c -0.328,-2.815 -1.49,-4.802 -3.313,-6.294 -1.82,-1.488 -4.303,-2.149 -6.953,-2.149 -5.959,0 -9.768,1.821 -9.768,6.125 0,12.087 54.807,3.973 54.807,36.428 0,18.051 -14.9,30.301 -46.693,30.301 -19.869,0 -41.729,-6.128 -43.549,-29.475 h 32.785 z"
   id="path8"
   style="stroke-width:3.50942" />&#10;	<path
   fill="#010202"
   d="m 139.3,125.053 c 0,0 -70.506,0 -84.274,0 -13.765,0 -30.888,-11.75 -30.888,-35.589 0,-23.839 16.114,-37.269 29.21,-37.269 13.096,0 85.952,0 85.952,0 z M 53.851,73.009 c -8.16,0 -14.772,6.614 -14.772,14.772 0,8.16 6.614,14.774 14.772,14.774 8.158,0 14.772,-6.614 14.772,-14.774 0.002,-8.158 -6.612,-14.772 -14.772,-14.772 z"
   id="path9"
   style="stroke-width:3.54291" />&#10;	<path
   fill="#010202"
   d="m 342.745,52.283 c 0,0 1.867,4.185 1.867,9.413 0,13.884 0,47.596 0,51.021 0,4.198 2.854,12.423 7.723,12.423 4.866,0 10.911,0 17.292,0 6.382,0 25.349,7.892 29.042,13.6 0,0 -26.524,-45.381 -9.289,-104.923 -0.003,0 -9.927,18.466 -46.635,18.466 z"
   id="path10"
   style="stroke-width:3.54291" />&#10;	<path
   fill="#cb1517"
   d="m 514.557,106.508 c -9.108,0 -17.054,-6.791 -17.054,-17.057 h 65.738 c 0.496,-31.46 -18.882,-53.647 -51,-53.647 -27.817,0 -49.178,18.214 -49.178,46.694 0,17.421 7.694,30.101 19.825,37.489 6.425,-2.841 20.166,-8.932 22.212,-9.955 2.686,-1.344 6.382,-2.349 9.401,0.738 3.022,3.09 0,8.997 0,8.997 0,0 -2.326,3.074 -6.283,7.635 1.381,0.082 2.774,0.134 4.188,0.134 20.202,0 42.059,-7.119 48.02,-28.646 h -32.953 c -2.486,5.131 -7.452,7.618 -12.916,7.618 z M 513.564,56.83 c 8.111,0 15.233,7.122 15.233,15.067 h -31.295 c 10e-4,-9.268 5.797,-15.067 16.062,-15.067 z"
   id="path11"
   style="stroke-width:3.50942" />&#10;	<path
   fill="#010202"
   d="m 514.499,110.771 c -3.02,-3.09 -6.713,-2.082 -9.4,-0.738 -2.046,1.023 -15.79,7.114 -22.213,9.955 -2.004,0.886 -3.305,1.461 -3.305,1.461 0,0 -22.831,11.081 -35.589,-26.188 -12.757,-37.267 1.345,-45.999 1.345,-45.999 l 37.27,-16.787 c 0,0 8.057,-2.352 2.015,-8.06 0,0 -19.81,-10.071 -55.062,-10.745 -35.254,-0.67 -43.312,42.305 -41.633,69.502 1.678,27.192 16.116,71.181 49.689,82.594 25.831,8.784 57.402,-23.155 70.603,-38.365 3.957,-4.561 6.283,-7.635 6.283,-7.635 0,0 3.019,-5.906 -0.003,-8.995 z"
   id="path12"
   style="stroke-width:3.54291" />&#10;	<path
   fill="#cb1517"
   d="m 1057.646,27.893 c 0,5.247 -4.219,9.408 -9.578,9.408 -5.357,0 -9.631,-4.161 -9.631,-9.408 0,-5.247 4.275,-9.35 9.689,-9.35 5.301,0 9.52,4.105 9.52,9.35 z m -16.819,0 c 0,4.161 3.139,7.469 7.299,7.469 4.047,0.057 7.129,-3.308 7.129,-7.412 0,-4.162 -3.082,-7.528 -7.24,-7.528 -4.049,0.002 -7.188,3.368 -7.188,7.471 z m 5.762,4.845 h -2.168 v -9.35 c 0.855,-0.114 2.053,-0.285 3.594,-0.285 1.764,0 2.561,0.285 3.193,0.741 0.566,0.398 0.965,1.085 0.965,1.997 0,1.139 -0.854,1.88 -1.934,2.225 v 0.113 c 0.908,0.285 1.369,1.025 1.652,2.279 0.281,1.424 0.51,1.939 0.68,2.281 h -2.279 c -0.281,-0.342 -0.455,-1.14 -0.742,-2.281 -0.168,-0.969 -0.738,-1.425 -1.936,-1.425 h -1.025 z m 0.055,-5.245 h 1.025 c 1.197,0 2.168,-0.398 2.168,-1.367 0,-0.857 -0.627,-1.424 -1.996,-1.424 -0.57,0 -0.971,0.057 -1.197,0.113 z"
   id="path13"
   style="stroke-width:3.50942" />&#10;</g>&#10;</svg>
