<svg id="Warstwa_1" data-name="Warstwa 1" xmlns="http://www.w3.org/2000/svg" viewBox="0 0 512.56 257.46">
<defs>
<style>
.cls-1{fill:#e24b12;}</style>
</defs>
<title>logo_lofi</title><path class="cls-1" d="M352,466.36a77,77,0,1,0,77,77A77,77,0,0,0,352,466.36ZM352,553a9.61,9.61,0,1,1,9.61-9.6A9.6,9.6,0,0,1,352,553Z" transform="translate(-165.18 -466.33)"/><path class="cls-1" d="M568.31,536.86,556,509.92a17.12,17.12,0,0,1,.19-12.92l11.94-24.23c1.74-3.53-.06-6.42-4-6.42H469.39a7.18,7.18,0,0,0-7.15,7.15v139.7a7.17,7.17,0,0,0,7.15,7.15H509.6a7.17,7.17,0,0,0,7.15-7.15v-62.7a7.17,7.17,0,0,1,7.15-7.15h40.22C568.06,543.36,569.94,540.43,568.31,536.86Zm-72.58-24.24a9.61,9.61,0,1,1,9.6-9.6A9.61,9.61,0,0,1,495.73,512.62Z" transform="translate(-165.18 -466.33)"/><path class="cls-1" d="M670.59,466.36H607.9a7.17,7.17,0,0,0-7.15,7.15v139.7a7.17,7.17,0,0,0,7.15,7.15h62.69a7.17,7.17,0,0,0,7.15-7.15V473.51A7.17,7.17,0,0,0,670.59,466.36ZM639.24,593.15a9.61,9.61,0,1,1,9.61-9.6A9.61,9.61,0,0,1,639.24,593.15Z" transform="translate(-165.18 -466.33)"/><path class="cls-1" d="M269.18,614.47l-100-146c-2.22-3.24-4-2.68-4,1.25V613.22a7.17,7.17,0,0,0,7.15,7.15h93.74C270,620.37,271.4,617.71,269.18,614.47Zm-62.67-21.32a9.61,9.61,0,1,1,9.61-9.61A9.6,9.6,0,0,1,206.52,593.15Z" transform="translate(-165.18 -466.33)"/><path class="cls-1" d="M192.15,713.14H177.57a1.43,1.43,0,0,1-1.43-1.43v-39a1.43,1.43,0,0,0-1.43-1.43h-8.07a1.44,1.44,0,0,0-1.43,1.43V721a1.43,1.43,0,0,0,1.43,1.43h25.52a1.44,1.44,0,0,0,1.43-1.43v-6.43A1.44,1.44,0,0,0,192.15,713.14Z" transform="translate(-165.18 -466.33)"/><path class="cls-1" d="M253,678a27.71,27.71,0,0,0-38.53,0,25.52,25.52,0,0,0-8,19,25.21,25.21,0,0,0,9.94,20.66,27.62,27.62,0,0,0,36.67-1.72A25.11,25.11,0,0,0,261,697,25.52,25.52,0,0,0,253,678Zm-7.72,31.17a14.88,14.88,0,0,1-11.51,4.93,15.06,15.06,0,0,1-11.73-5,18.79,18.79,0,0,1,.18-24.27,15.78,15.78,0,0,1,23,0,18.59,18.59,0,0,1,0,24.31Z" transform="translate(-165.18 -466.33)"/><path class="cls-1" d="M304.17,671.32H276.94a1.44,1.44,0,0,0-1.43,1.43V721a1.44,1.44,0,0,0,1.43,1.43H285a1.44,1.44,0,0,0,1.43-1.43V701.77a1.43,1.43,0,0,1,1.43-1.43h16.3a1.44,1.44,0,0,0,1.43-1.43v-6.43a1.44,1.44,0,0,0-1.43-1.43h-16.3a1.43,1.43,0,0,1-1.43-1.43V682a1.43,1.43,0,0,1,1.43-1.43h16.3a1.44,1.44,0,0,0,1.43-1.43v-6.43A1.44,1.44,0,0,0,304.17,671.32Z" transform="translate(-165.18 -466.33)"/><path class="cls-1" d="M336.34,671.32h-8.08a1.43,1.43,0,0,0-1.43,1.43V721a1.43,1.43,0,0,0,1.43,1.43h8.08a1.44,1.44,0,0,0,1.43-1.43V672.75A1.44,1.44,0,0,0,336.34,671.32Z" transform="translate(-165.18 -466.33)"/><path class="cls-1" d="M431,721.21l-13.35-22a12.49,12.49,0,0,0,8.18-4.36,13.37,13.37,0,0,0,3.18-9q0-14.51-18.59-14.51H396.25a1.44,1.44,0,0,0-1.43,1.43V721a1.44,1.44,0,0,0,1.43,1.43h8.07a1.44,1.44,0,0,0,1.43-1.43V700c0-.79.31-.87.7-.18l12,21.39a2.71,2.71,0,0,0,2.13,1.25h9.72C431.13,722.44,431.44,721.88,431,721.21ZM415.4,692.12c-1.48.67-6.57.93-6.57.93-.79,0-1.8.07-2.25.07s-.82-.65-.82-1.43V681.11a1.44,1.44,0,0,1,1.43-1.43h.22q5.71,0,8,1.22,2.86,1.57,2.86,5.72T415.4,692.12Z" transform="translate(-165.18 -466.33)"/><path class="cls-1" d="M493.33,678a27.71,27.71,0,0,0-38.54,0,25.52,25.52,0,0,0-8,19,25.21,25.21,0,0,0,9.94,20.66,27.62,27.62,0,0,0,36.68-1.72A25.11,25.11,0,0,0,501.33,697,25.52,25.52,0,0,0,493.33,678Zm-7.72,31.17a14.89,14.89,0,0,1-11.51,4.93,15,15,0,0,1-11.72-5,18.78,18.78,0,0,1,.18-24.27,15.78,15.78,0,0,1,23,0,18.59,18.59,0,0,1,0,24.31Z" transform="translate(-165.18 -466.33)"/><path class="cls-1" d="M543.3,695.55Q554,693.69,554,684.62q0-7.36-6.22-10.8a20.12,20.12,0,0,0-7.43-2.14c-2-.24-7.93-.34-7.93-.34l-2.86,0h-6.71a1.44,1.44,0,0,0-1.43,1.43V721a1.44,1.44,0,0,0,1.43,1.43h6.93q7.36,0,10.65-.36a25,25,0,0,0,8.58-2.5q6.79-3.64,6.79-11.72Q555.81,697.41,543.3,695.55Zm-10.94-14.36a1.44,1.44,0,0,1,1.43-1.43H535q4.72,0,6.79,1.29t2.07,4.65q0,3.43-2.29,4.79c-1.34.86-5.36,1.17-5.36,1.17-.78.06-2,.11-2.64.11a1.34,1.34,0,0,1-1.22-1.43Zm4.29,32.74h-2.86a1.44,1.44,0,0,1-1.43-1.43V701.63a1.44,1.44,0,0,1,1.43-1.43h3q8.22,0,8.22,6.65Q545,713.93,536.65,713.93Z" transform="translate(-165.18 -466.33)"/><path class="cls-1" d="M619.29,678a27.71,27.71,0,0,0-38.53,0,25.51,25.51,0,0,0-8,19,25.21,25.21,0,0,0,9.94,20.66,27.62,27.62,0,0,0,36.67-1.72A25.11,25.11,0,0,0,627.29,697,25.52,25.52,0,0,0,619.29,678Zm-7.72,31.17a14.89,14.89,0,0,1-11.51,4.93,15.06,15.06,0,0,1-11.73-5,18.77,18.77,0,0,1,.18-24.27,15.78,15.78,0,0,1,23,0,18.59,18.59,0,0,1,0,24.31Z" transform="translate(-165.18 -466.33)"/><path class="cls-1" d="M676.26,671.32H643.09a1.44,1.44,0,0,0-1.43,1.43v6.43a1.43,1.43,0,0,0,1.43,1.43h9.65a1.44,1.44,0,0,1,1.43,1.43v39a1.44,1.44,0,0,0,1.43,1.43h8.08a1.44,1.44,0,0,0,1.43-1.43V682a1.44,1.44,0,0,1,1.43-1.43h9.72a1.43,1.43,0,0,0,1.43-1.43v-6.43A1.44,1.44,0,0,0,676.26,671.32Z" transform="translate(-165.18 -466.33)"/></svg>