<?xml version="1.0" encoding="UTF-8" standalone="no"?>
<!-- Created with Inkscape (http://www.inkscape.org/) -->

<svg
   width="16.668751mm"
   height="16.668751mm"
   viewBox="0 0 16.668751 16.668751"
   version="1.1"
   id="svg5"
   inkscape:version="1.3 (0e150ed6c4, 2023-07-21)"
   sodipodi:docname="logo_bluetooth.svg"
   xml:space="preserve"
   xmlns:inkscape="http://www.inkscape.org/namespaces/inkscape"
   xmlns:sodipodi="http://sodipodi.sourceforge.net/DTD/sodipodi-0.dtd"
   xmlns="http://www.w3.org/2000/svg"
   xmlns:svg="http://www.w3.org/2000/svg"><sodipodi:namedview
     id="namedview7"
     pagecolor="#ffffff"
     bordercolor="#999999"
     borderopacity="1"
     inkscape:showpageshadow="0"
     inkscape:pageopacity="0"
     inkscape:pagecheckerboard="0"
     inkscape:deskcolor="#d1d1d1"
     inkscape:document-units="mm"
     showgrid="false"
     inkscape:zoom="0.74564394"
     inkscape:cx="162.27584"
     inkscape:cy="195.13335"
     inkscape:window-width="1920"
     inkscape:window-height="1017"
     inkscape:window-x="-8"
     inkscape:window-y="-8"
     inkscape:window-maximized="1"
     inkscape:current-layer="layer1" /><defs
     id="defs2"><style
       id="style60"><![CDATA[
.bluetooth logo {
  stroke-width:9.53209;
}
]]></style></defs><g
     inkscape:label="Capa 1"
     inkscape:groupmode="layer"
     id="layer1"
     transform="translate(-23.141287,-27.408182)"><g
       id="g60"
       transform="matrix(0.10490894,0,0,0.10490894,20.401002,24.965702)"
       inkscape:export-filename="logo_bluetooth.svg"
       inkscape:export-xdpi="96"
       inkscape:export-ydpi="96"
       class="bluetooth logo"><circle
         style="fill:#b3b3b3;stroke:#ffffff;stroke-width:5.24264;stroke-linecap:round;stroke-linejoin:round;stroke-miterlimit:5"
         id="path60"
         cx="105.56451"
         cy="102.7258"
         r="76.822578" /><path
         id="path58"
         style="fill:#ffffff;stroke-width:9.53209"
         d="m 109.23998,158.22603 c -1.36226,-0.34211 -3.3906,-1.5252 -4.25478,-2.48174 -0.43689,-0.48358 -1.10651,-1.53809 -1.48805,-2.34336 l -0.69371,-1.46411 -0.0615,-18.29206 c -0.0338,-10.06064 -0.10641,-18.29207 -0.16143,-18.29207 -0.0551,0 -6.443433,4.22381 -14.196469,9.38622 -12.372909,8.23863 -14.269053,9.43033 -15.50833,9.74685 -1.697627,0.4336 -2.978121,0.30036 -4.603904,-0.47903 -2.988112,-1.4325 -4.350323,-4.91757 -3.162342,-8.09051 0.886557,-2.36787 -0.192333,-1.55471 20.296128,-15.29715 L 97.186829,102.71698 82.200442,92.670644 C 73.957928,87.145158 66.892699,82.264662 66.49993,81.825098 c -1.649861,-1.846433 -2.233677,-4.484156 -1.488833,-6.726669 0.547042,-1.646993 2.412052,-3.497353 4.052021,-4.02019 1.488244,-0.474466 2.96399,-0.481292 4.317893,-0.01997 0.599304,0.204203 7.10011,4.381284 15.126185,9.7193 l 14.075194,9.361192 0.11049,-18.28507 c 0.10105,-16.714284 0.14363,-18.367809 0.4959,-19.248204 1.70979,-4.273009 7.0576,-6.677559 11.10933,-4.995104 1.46045,0.606439 25.74194,16.696102 27.12126,17.971365 6.54081,6.047421 6.72592,16.802067 0.39972,23.224523 -1.11044,1.12735 -3.57974,2.864487 -10.87046,7.647313 -7.0998,4.657596 -9.3693,6.250316 -9.17366,6.438036 0.14298,0.13718 4.33464,2.92243 9.31479,6.18945 4.98016,3.26702 9.62921,6.47175 10.33121,7.12161 6.53953,6.05384 6.72381,16.80329 0.39812,23.22434 -1.13688,1.15404 -4.05113,3.17791 -13.95999,9.69495 -6.88775,4.53004 -12.98874,8.44237 -13.55773,8.69407 -1.19247,0.52749 -3.76412,0.7358 -5.06143,0.41001 z m 15.85667,-23.52875 c 7.17135,-4.90696 7.87785,-5.51765 7.87959,-6.81085 0.001,-1.40207 -0.43622,-1.76955 -8.57241,-7.19053 -4.34234,-2.89323 -8.0195,-5.33464 -8.17147,-5.42538 -0.21979,-0.13123 -0.27632,2.4871 -0.27632,12.79845 v 12.96342 l 1.05,-0.7588 c 0.57751,-0.41734 4.21827,-2.92668 8.09061,-5.57631 z m 7.54095,-55.943325 c 0.75959,-1.600716 0.2465,-2.675847 -2.04067,-4.276022 -2.15412,-1.507084 -13.21793,-9.094362 -14.03298,-9.623463 l -0.60791,-0.394616 v 12.960051 12.960053 l 8.17105,-5.455319 c 6.46783,-4.31818 8.2418,-5.604435 8.51051,-6.170684 z" /></g></g></svg>
